<!-- icon666.com - MILLIONS OF FREE VECTOR ICONS --><svg id="Gradient" viewBox="0 0 64 64" xmlns="http://www.w3.org/2000/svg" xmlns:xlink="http://www.w3.org/1999/xlink"><linearGradient id="linear-gradient" gradientUnits="userSpaceOnUse" x1="4" x2="60" y1="32" y2="32"><stop offset="0" stop-color="#7f00ff"></stop><stop offset="1" stop-color="#e100ff"></stop></linearGradient><path d="m58 45.76855v-25.11914a4.004 4.004 0 0 0 -4-4h-5.48456l-2.47931-4.25a2.35915 2.35915 0 0 0 -4.07324.001l-2.47858 4.249h-29.48431a4.004 4.004 0 0 0 -4 4v25.11914a2.00261 2.00261 0 0 0 -2 2 5.00588 5.00588 0 0 0 5 5h46a5.00588 5.00588 0 0 0 5-5 2.00261 2.00261 0 0 0 -2-2zm-14.30957-32.35937a.35135.35135 0 0 1 .61817-.001l7.14062 12.24125a.35093.35093 0 0 1 -.30856.53714h-14.28128a.35.35 0 0 1 -.30864-.53709c2.01085-3.44848 5.12646-8.78807 7.13969-12.2403zm-2.79 17.18359c.44292 2.88488-1.093 5.1889-.96264 7.92191-.00321.09807-.05436.81178-.05492.8945a5.08749 5.08749 0 0 1 -.502.08691c-1.4897.17331-2.0392.47-2.37106 2.0137-.00657.0865-.06037.0509-.14262.05955-1.60232-.0089-3.377-.00194-4.9873 0-.80248.04226-3.87612-.003-5.02148.01662-.15107-.664-.2567-1.88132-2-2.05083-.127-.01365-.41211-.0449-.59473-.08a22.37087 22.37087 0 0 0 -.94533-5.57226c-1.98387-6.7541 5.62243-13.34293 12.14412-10.33844l-.64019 1.09722a2.37146 2.37146 0 0 0 2.03716 3.54489h3.35633a8.88547 8.88547 0 0 1 .68462 2.40623zm-32.90043-9.94336a2.00261 2.00261 0 0 1 2-2h28.31769l-1.84088 3.15583a10.92733 10.92733 0 0 0 -14.18481 4.96244 10.14567 10.14567 0 0 0 -.86724 7.75673 17.85119 17.85119 0 0 1 .78809 4.48731c.10654 1.89143.708 2.36182 2.59183 2.52635.17641.72669.21707 1.97371 2.09856 2.04891 2.49813-.018 4.86076-.00948 6.63874-.01965 1.819-.21273 4.8191.81423 5.41016-1.57993.07376-.43418.099-.45068.55275-.4893.889-.133 2.37324-.248 2.38182-2.1768a18.26705 18.26705 0 0 1 .667-4.69044 8.91946 8.91946 0 0 0 .32715-4.31641 10.874 10.874 0 0 0 -.51941-2.12793h8.77918a2.35834 2.35834 0 0 0 2.0371-3.54492l-3.4956-5.99219h4.31787a2.00261 2.00261 0 0 1 2 2v25.11914h-18c-.40258-.06332-1.91208 1.00929-2.27053 1.167l-7.459.00005c-.35321-.15691-1.87569-1.2311-2.27049-1.167h-18zm47 30.11914h-46a3.00328 3.00328 0 0 1 -3-3h19.72949c.37767.17084 1.855 1.22175 2.27047 1.167h8c.41541.05719 1.90357-1.00506 2.27054-1.16695l19.7295-.00005a3.00328 3.00328 0 0 1 -3 3zm-21.6088-11.87937c.48167 1.37142-1.34769 1.01709-2.15487 1.05064-1.64746-.26862-.1612-1.80267.31042-2.53088.69239-.96705 1.45642 1.01471 1.84445 1.48024zm.03751-6.93605a2.32084 2.32084 0 0 0 -.70215 1.68847 3.51823 3.51823 0 0 0 5.84186 2.73034c1.17543-1.02379 1.63811-3.13957.51948-4.33484a4.51 4.51 0 0 0 -5.65919-.08397zm4.29 1.85058a1.50042 1.50042 0 0 1 -1.58107 1.46874c-.85059.00214-1.73866-1.06869-1.30083-1.89944a1.99657 1.99657 0 0 1 1.27936-.35641c.81153.01113 1.64883.0734 1.60258.78711zm-6.54492-.87793a2.89742 2.89742 0 0 0 -2.69531-1.8584c-3.416-.30761-4.03028 1.51465-4.13477 2.31641a3.52068 3.52068 0 0 0 3.47176 3.90821c2.10979.10572 4.08519-2.43491 3.35836-4.36622zm-2.35059 1.92481a1.47611 1.47611 0 0 1 -2.49412-1.21883c.08587-.65086 1.35512-.62494 1.95408-.57414 1.13554.05384 1.36351.9368.54008 1.79297zm14.1768-14.43159v-3a1 1 0 1 1 2 0v3a1 1 0 0 1 -2 0zm1.00006 4a1.00018 1.00018 0 0 1 -.00006-2 1.00018 1.00018 0 0 1 .00006 1.99994z" fill="url(#linear-gradient)"></path></svg>